<?xml version="1.0"?>
<svg xmlns="http://www.w3.org/2000/svg" xmlns:xlink="http://www.w3.org/1999/xlink" version="1.1" id="Capa_1" x="0px" y="0px" viewBox="0 0 512 512" style="enable-background:new 0 0 512 512;" xml:space="preserve" width="512px" height="512px" class=""><g><script xmlns="" id="tinyhippos-injected" class="active-path" style=""/><g>
	<g>
		<path d="M505.365,315.583c-0.96-2.794-3.03-5.077-5.739-6.293c-2.688-1.216-5.781-1.237-8.512-0.085    c-5.077,2.133-10.667,0.426-13.312-4.139s-1.344-10.282,3.072-13.589c2.368-1.792,3.883-4.48,4.203-7.445    c0.298-2.944-0.64-5.909-2.603-8.128c-17.408-19.797-39.829-32.896-64.832-37.845c-2.944-0.598-5.994,0.106-8.405,1.877    c-2.432,1.792-3.968,4.501-4.288,7.488c-0.555,5.504-4.992,9.643-10.283,9.643c-5.291,0-9.728-4.139-10.283-9.643    c-0.32-2.987-1.877-5.696-4.288-7.488c-2.389-1.77-5.44-2.474-8.405-1.877c-25.003,4.949-47.424,18.048-64.832,37.845    c-1.963,2.219-2.902,5.163-2.603,8.128c0.299,2.965,1.835,5.653,4.203,7.445c4.416,3.328,5.717,9.045,3.072,13.589    s-8.235,6.272-13.312,4.139c-2.731-1.174-5.824-1.152-8.512,0.085c-2.71,1.194-4.779,3.477-5.739,6.293    c-4.459,13.141-6.635,25.386-6.635,37.461c0,12.074,2.176,24.341,6.613,37.461c0.96,2.816,3.051,5.099,5.739,6.315    c2.73,1.194,5.802,1.237,8.533,0.085c5.056-2.154,10.667-0.405,13.312,4.139c2.624,4.566,1.323,10.283-3.093,13.611    c-2.39,1.792-3.904,4.48-4.203,7.445c-0.298,2.944,0.64,5.909,2.603,8.128c17.408,19.776,39.829,32.874,64.832,37.845    c2.902,0.598,5.995-0.106,8.427-1.877s3.968-4.501,4.288-7.488c0.555-5.525,4.992-9.664,10.283-9.664    c5.291,0,9.728,4.16,10.283,9.664c0.32,2.987,1.877,5.717,4.288,7.488c1.856,1.366,4.075,2.091,6.336,2.091    c0.704,0,1.387-0.064,2.069-0.214c25.003-4.949,47.424-18.048,64.832-37.845c1.963-2.24,2.902-5.184,2.603-8.128    c-0.299-2.965-1.835-5.674-4.203-7.445c-4.437-3.328-5.738-9.046-3.093-13.611c2.645-4.566,8.256-6.315,13.312-4.139    c2.73,1.152,5.824,1.11,8.533-0.085c2.688-1.216,4.779-3.499,5.739-6.315c4.459-13.12,6.635-25.386,6.635-37.461    C512,340.971,509.824,328.724,505.365,315.583z M487.83,374.72c-11.904-0.555-22.549,5.397-28.501,15.68    c-5.931,10.261-5.355,22.741,0.661,32.469c-10.816,10.24-23.488,17.685-37.291,21.952c-5.333-10.261-15.936-17.109-28.032-17.109    c-12.096,0-22.699,6.848-28.03,17.087c-13.824-4.245-26.475-11.712-37.291-21.952c6.016-9.706,6.592-22.186,0.661-32.469    c-5.93-10.304-17.002-16.213-28.501-15.68c-1.92-7.509-2.837-14.656-2.837-21.653c0-6.976,0.938-14.122,2.837-21.653    c11.221,0.427,22.57-5.397,28.501-15.68c5.952-10.261,5.376-22.741-0.64-32.469c10.816-10.24,23.466-17.685,37.269-21.952    c5.333,10.261,15.936,17.109,28.032,17.109s22.699-6.848,28.032-17.109c13.802,4.245,26.453,11.712,37.269,21.952    c-6.016,9.706-6.571,22.186-0.64,32.469c5.93,10.304,17.258,16.171,28.501,15.68c1.898,7.509,2.837,14.677,2.837,21.653    C490.667,360.043,489.75,367.189,487.83,374.72z" data-original="#000000" class="active-path" fill="#FFFFFF"/>
	</g>
</g><g>
	<g>
		<path d="M394.667,299.712c-29.397,0-53.333,23.936-53.333,53.333c0,29.397,23.936,53.333,53.333,53.333    c29.397,0,53.333-23.937,53.333-53.334C448,323.648,424.064,299.712,394.667,299.712z M394.667,385.044c-17.643,0-32-14.357-32-32    s14.357-32,32-32c17.642,0,32,14.358,32,32C426.667,370.688,412.31,385.044,394.667,385.044z" data-original="#000000" class="active-path" fill="#FFFFFF"/>
	</g>
</g><g>
	<g>
		<path d="M458.667,150.378c-15.936,0-25.174,7.04-32.619,12.715c-5.974,4.544-10.432,7.957-18.283,8.533    c-2.262-7.36-1.92-33.813,13.077-93.76c2.069-8.256,0.235-16.81-4.992-23.509c-5.269-6.741-13.205-10.624-21.781-10.624h-95.552    c-8.554,0-16.106,5.078-19.285,12.971c-3.2,7.957-1.258,17.003,4.971,22.976c9.6,9.259,14.464,18.688,14.464,28.032    c0,17.642-23.19,21.333-42.667,21.333c-19.478,0-42.667-3.69-42.667-21.333c0-9.344,4.864-18.773,14.464-28.032    c6.23-5.994,8.171-15.018,4.971-22.997c-3.178-7.872-10.752-12.971-19.285-12.971h-95.552c-8.554,0-16.512,3.883-21.781,10.624    c-5.227,6.698-7.04,15.274-4.992,23.509c14.997,59.968,15.338,86.421,13.077,93.781c-7.83-0.576-12.31-3.989-18.283-8.533    c-7.446-5.675-16.683-12.715-32.619-12.715c-32.064,0-53.333,38.528-53.333,64c0,25.472,21.269,64,53.333,64    c15.936,0,25.173-7.04,32.64-12.715c5.974-4.544,10.432-7.957,18.283-8.533c2.262,7.36,1.92,33.813-13.077,93.781    c-2.069,8.234-0.235,16.81,4.992,23.509c5.269,6.763,13.205,10.624,21.781,10.624h95.531c8.554,0,16.106-5.098,19.285-12.971    c3.221-7.957,1.258-17.002-4.971-22.997c-9.6-9.237-14.464-18.667-14.464-28.032c0-17.642,23.19-21.333,42.667-21.333l3.498,0.171    c5.931,0.298,9.963-4.395,10.219-10.219c0.278-5.824-4.97-10.816-10.773-11.179L256,278.378c-57.771,0-64,29.824-64,42.667    c0,15.382,7.061,29.974,21.482,42.668H117.93c-1.963,0-3.776-0.875-4.971-2.411c-0.661-0.874-1.728-2.709-1.109-5.205    c23.595-94.336,12.672-108.31,8.576-113.579c-3.435-4.394-8.32-6.805-13.76-6.805c-16.597,0-26.069,7.211-33.664,12.992    c-6.336,4.842-10.944,8.341-19.669,8.341c-17.344,0-32-26.219-32-42.667s14.656-42.667,32-42.667    c8.725,0,13.333,3.498,19.669,8.341c7.595,5.803,17.067,12.992,33.664,12.992c5.44,0,10.325-2.41,13.76-6.805    c4.096-5.248,15.019-19.221-8.576-113.557c-0.618-2.496,0.448-4.331,1.131-5.227c1.195-1.515,3.008-2.411,4.971-2.411l95.04-0.725    C199.061,77.739,192,92.352,192,107.711c0,12.843,6.229,42.667,64,42.667s64-29.824,64-42.667c0-15.36-7.061-29.973-21.482-42.667    h95.552c1.942,0,3.776,0.875,4.971,2.411c0.661,0.874,1.728,2.709,1.109,5.205c-23.595,94.336-12.672,108.31-8.576,113.579    c3.435,4.394,8.32,6.805,13.76,6.805c16.597,0,26.069-7.189,33.664-12.992c6.336-4.842,10.944-8.341,19.669-8.341    c17.344,0,32,26.219,32,42.667c0,6.251-2.389,14.507-6.421,22.08c-2.773,5.205-0.789,11.669,4.416,14.421    c5.205,2.795,11.669,0.789,14.421-4.416c5.674-10.666,8.917-22.357,8.917-32.085C512,188.906,490.731,150.378,458.667,150.378z" data-original="#000000" class="active-path" fill="#FFFFFF"/>
	</g>
</g></g> </svg>
